<svg width="42" height="42" viewBox="0 0 42 42" fill="none" xmlns="http://www.w3.org/2000/svg">
<circle cx="21" cy="21" r="21" fill="#FF3115"/>
<path d="M19.625 14.125H22.375C22.375 13.7603 22.2301 13.4106 21.9723 13.1527C21.7144 12.8949 21.3647 12.75 21 12.75C20.6353 12.75 20.2856 12.8949 20.0277 13.1527C19.7699 13.4106 19.625 13.7603 19.625 14.125ZM18.25 14.125C18.25 13.3957 18.5397 12.6962 19.0555 12.1805C19.5712 11.6647 20.2707 11.375 21 11.375C21.7293 11.375 22.4288 11.6647 22.9445 12.1805C23.4603 12.6962 23.75 13.3957 23.75 14.125H29.25C29.4323 14.125 29.6072 14.1974 29.7361 14.3264C29.8651 14.4553 29.9375 14.6302 29.9375 14.8125C29.9375 14.9948 29.8651 15.1697 29.7361 15.2986C29.6072 15.4276 29.4323 15.5 29.25 15.5H28.4745L26.8176 27.6523C26.7053 28.4758 26.2983 29.2307 25.6721 29.7773C25.0459 30.3238 24.2429 30.625 23.4117 30.625H18.5882C17.7571 30.625 16.9541 30.3238 16.3279 29.7773C15.7017 29.2307 15.2947 28.4758 15.1824 27.6523L13.5255 15.5H12.75C12.5677 15.5 12.3928 15.4276 12.2639 15.2986C12.1349 15.1697 12.0625 14.9948 12.0625 14.8125C12.0625 14.6302 12.1349 14.4553 12.2639 14.3264C12.3928 14.1974 12.5677 14.125 12.75 14.125H18.25ZM19.625 18.9375C19.625 18.7552 19.5526 18.5803 19.4236 18.4514C19.2947 18.3224 19.1198 18.25 18.9375 18.25C18.7552 18.25 18.5803 18.3224 18.4514 18.4514C18.3224 18.5803 18.25 18.7552 18.25 18.9375V25.8125C18.25 25.9948 18.3224 26.1697 18.4514 26.2986C18.5803 26.4276 18.7552 26.5 18.9375 26.5C19.1198 26.5 19.2947 26.4276 19.4236 26.2986C19.5526 26.1697 19.625 25.9948 19.625 25.8125V18.9375ZM23.0625 18.25C23.2448 18.25 23.4197 18.3224 23.5486 18.4514C23.6776 18.5803 23.75 18.7552 23.75 18.9375V25.8125C23.75 25.9948 23.6776 26.1697 23.5486 26.2986C23.4197 26.4276 23.2448 26.5 23.0625 26.5C22.8802 26.5 22.7053 26.4276 22.5764 26.2986C22.4474 26.1697 22.375 25.9948 22.375 25.8125V18.9375C22.375 18.7552 22.4474 18.5803 22.5764 18.4514C22.7053 18.3224 22.8802 18.25 23.0625 18.25ZM16.545 27.4666C16.6125 27.9606 16.8566 28.4135 17.2323 28.7414C17.6079 29.0692 18.0896 29.2499 18.5882 29.25H23.4117C23.9106 29.2503 24.3926 29.0697 24.7686 28.7418C25.1445 28.4139 25.3889 27.9609 25.4564 27.4666L27.0871 15.5H14.9129L16.545 27.4666Z" fill="white"/>
</svg>
