<svg width="184" height="207" viewBox="0 0 184 207" fill="none" xmlns="http://www.w3.org/2000/svg">
<g clip-path="url(#clip0_1_1760)">
<path fill-rule="evenodd" clip-rule="evenodd" d="M77.1329 60.0021C79.985 58.8691 83.2315 58.0877 86.8331 57.7254C87.8099 57.6295 88.5202 56.7593 88.4243 55.7825C88.3249 54.8093 87.4547 54.0954 86.4815 54.1913C82.5211 54.5891 78.955 55.4557 75.8222 56.7024C74.9094 57.0612 74.4654 58.0948 74.8277 59.0076C75.19 59.9169 76.2236 60.3644 77.1329 60.0021Z" fill="#738BAB"/>
<path fill-rule="evenodd" clip-rule="evenodd" d="M95.5352 57.6577C99.7335 57.9738 103.577 58.0413 107.086 57.8921C108.066 57.8531 108.83 57.0255 108.787 56.0451C108.748 55.0648 107.917 54.3047 106.94 54.3438C103.555 54.4859 99.8508 54.4184 95.8016 54.1129C94.8248 54.0419 93.9724 54.7736 93.8978 55.7503C93.8232 56.7307 94.5584 57.5831 95.5352 57.6577Z" fill="#738BAB"/>
<path fill-rule="evenodd" clip-rule="evenodd" d="M116.676 56.8413C120.818 56.0634 124.33 54.9126 127.282 53.4954C128.166 53.0692 128.539 52.0071 128.113 51.1263C127.69 50.2419 126.628 49.8689 125.744 50.2916C123.037 51.5916 119.816 52.6394 116.019 53.3533C115.056 53.5345 114.421 54.4615 114.602 55.4276C114.783 56.3902 115.714 57.0224 116.676 56.8413Z" fill="#738BAB"/>
<path fill-rule="evenodd" clip-rule="evenodd" d="M134.521 48.5615C137.703 45.4891 139.572 41.9514 140.413 38.3533C140.637 37.3979 140.04 36.4424 139.088 36.2187C138.133 35.9949 137.178 36.5916 136.954 37.5435C136.258 40.5307 134.695 43.4574 132.056 46.0041C131.349 46.6861 131.328 47.812 132.01 48.5153C132.692 49.2221 133.814 49.2434 134.521 48.5615Z" fill="#738BAB"/>
<path fill-rule="evenodd" clip-rule="evenodd" d="M139.568 26.1242C138.158 22.3805 135.767 19.2016 132.855 17.1912C132.049 16.6371 130.944 16.8396 130.386 17.6459C129.829 18.4521 130.031 19.5603 130.841 20.118C133.196 21.7412 135.103 24.3412 136.243 27.3745C136.588 28.2909 137.611 28.7562 138.531 28.4116C139.447 28.0671 139.913 27.0406 139.568 26.1242Z" fill="#738BAB"/>
<path fill-rule="evenodd" clip-rule="evenodd" d="M93.294 17.1843C95.244 8.03459 103.016 3.58407 108.62 3.55211C110.46 3.54145 112.055 3.97478 112.883 5.08297C113.373 5.74007 113.522 6.62094 113.334 7.70072C113.167 8.66683 113.817 9.58677 114.783 9.75371C115.749 9.92065 116.669 9.27065 116.836 8.30454C117.22 6.0846 116.736 4.30511 115.728 2.95894C114.318 1.06578 111.732 -0.0175445 108.603 0.000214985C101.779 0.0392858 92.1929 5.30674 89.8202 16.4455C89.6142 17.4045 90.2251 18.3457 91.1842 18.5517C92.1432 18.7577 93.088 18.1433 93.294 17.1843Z" fill="#738BAB"/>
<path fill-rule="evenodd" clip-rule="evenodd" d="M89.8344 17.1913C92.239 28.2732 101.79 33.5158 108.595 33.5585C111.966 33.5762 114.698 32.3224 116.033 30.1522C116.839 28.8451 117.191 27.1793 116.815 25.144C116.353 22.6399 114.705 19.4326 111.256 15.625C110.599 14.8968 109.473 14.84 108.748 15.4971C108.02 16.1577 107.963 17.2801 108.624 18.0083C111.025 20.6615 112.449 22.9241 113.074 24.8244C113.547 26.2735 113.536 27.435 113.01 28.291C112.535 29.0618 111.682 29.5271 110.656 29.7828C109.366 30.1025 107.821 30.0776 106.191 29.7331C100.98 28.632 95.0059 24.2738 93.3081 16.4383C93.0986 15.4793 92.1538 14.872 91.1947 15.078C90.2357 15.2875 89.6284 16.2323 89.8344 17.1913Z" fill="#738BAB"/>
<path fill-rule="evenodd" clip-rule="evenodd" d="M91.0883 20.3667H114.868C116.829 20.3667 118.42 18.7755 118.42 16.8148C118.42 14.8542 116.829 13.2629 114.868 13.2629H91.0883C89.1276 13.2629 87.5364 14.8542 87.5364 16.8148C87.5364 18.7755 89.1276 20.3667 91.0883 20.3667Z" fill="#66B600"/>
<path fill-rule="evenodd" clip-rule="evenodd" d="M19.1837 159.019V178.941C19.1837 182.862 21.7553 186.318 25.5132 187.444C39.7847 191.728 79.9282 203.772 89.4472 206.625C91.1095 207.125 92.8855 207.125 94.5477 206.625C104.067 203.772 144.21 191.728 158.482 187.444C162.24 186.318 164.811 182.862 164.811 178.941C164.811 169.458 164.811 150.537 164.811 150.537C164.811 149.556 164.016 148.761 163.035 148.761C162.055 148.761 161.259 149.556 161.259 150.537V178.941C161.259 181.293 159.714 183.367 157.462 184.045C143.191 188.325 103.044 200.37 93.5284 203.225C92.5303 203.524 91.4647 203.524 90.4666 203.225L26.5326 184.045C24.2807 183.367 22.7356 181.293 22.7356 178.941V159.019C22.7356 158.038 21.94 157.243 20.9597 157.243C19.9793 157.243 19.1837 158.038 19.1837 159.019Z" fill="#738BAB"/>
<path fill-rule="evenodd" clip-rule="evenodd" d="M15.0494 118.775C15.0494 118.775 6.05597 132.109 1.45983 138.922C0.525679 140.307 0.294805 142.055 0.841796 143.635C1.38524 145.216 2.63905 146.452 4.2303 146.967L68.1466 167.735C70.4056 168.466 72.8742 167.621 74.2061 165.657C78.9692 158.624 93.468 137.235 93.468 137.235C93.7806 136.773 93.8587 136.19 93.6776 135.661C93.4964 135.132 93.0773 134.72 92.5445 134.549L21.5067 111.498C20.5761 111.196 19.5745 111.707 19.269 112.641C18.9671 113.572 19.4786 114.574 20.4127 114.879L89.2022 137.199L71.2652 163.664C70.8212 164.318 69.9971 164.602 69.2441 164.357L5.32784 143.589C4.7986 143.415 4.37948 143.006 4.19833 142.477C4.01719 141.952 4.09533 141.369 4.40434 140.907L17.9939 120.761C18.5444 119.948 18.3278 118.843 17.5144 118.296C16.7045 117.745 15.5999 117.962 15.0494 118.775Z" fill="#738BAB"/>
<path fill-rule="evenodd" clip-rule="evenodd" d="M152.383 114.776L91.4505 134.549C90.5164 134.851 90.0049 135.853 90.3068 136.787C90.6123 137.718 91.6139 138.229 92.5445 137.927L153.477 118.157C154.411 117.855 154.923 116.85 154.621 115.92C154.315 114.986 153.314 114.474 152.383 114.776Z" fill="#738BAB"/>
<path fill-rule="evenodd" clip-rule="evenodd" d="M95.5565 144.655C95.5565 144.655 105.861 159.857 109.789 165.657C111.121 167.621 113.589 168.466 115.848 167.735C126.323 164.332 166.271 151.35 179.765 146.967C181.356 146.452 182.61 145.216 183.153 143.635C183.7 142.055 183.469 140.307 182.535 138.922C176.966 130.664 164.509 112.194 164.509 112.194C163.959 111.384 162.854 111.167 162.041 111.714C161.231 112.265 161.014 113.369 161.561 114.183C161.561 114.183 174.021 132.649 179.591 140.907C179.9 141.369 179.978 141.952 179.797 142.477C179.616 143.006 179.196 143.415 178.667 143.589L114.751 164.357C113.998 164.602 113.174 164.318 112.73 163.664L98.4975 142.662C97.9469 141.849 96.8423 141.639 96.0289 142.19C95.2191 142.737 95.0059 143.845 95.5565 144.655Z" fill="#738BAB"/>
<path fill-rule="evenodd" clip-rule="evenodd" d="M32.2974 111.366L92.5481 91.7524C93.0773 91.5783 93.4965 91.1663 93.6776 90.6371C93.8587 90.1078 93.7806 89.5253 93.4645 89.0636C93.4645 89.0636 80.7061 70.2989 76.2698 63.7741C74.9378 61.817 72.4728 60.9717 70.2174 61.7034L6.29753 82.4713C4.70628 82.9898 3.45246 84.2224 2.90547 85.8065C2.36203 87.3871 2.59291 89.1311 3.52705 90.5199C8.65598 98.1245 19.4857 114.183 19.4857 114.183C20.0362 114.992 21.1409 115.209 21.9543 114.659C22.7641 114.112 22.9808 113.007 22.4338 112.194C22.4338 112.194 11.6005 96.139 6.47157 88.5344C6.159 88.0691 6.08441 87.4901 6.26556 86.9609C6.44671 86.4352 6.86583 86.0232 7.39506 85.8491L71.3149 65.0812C72.0679 64.8361 72.8884 65.1203 73.3324 65.7703L89.1987 89.1062L31.1998 107.988C30.2657 108.29 29.7578 109.295 30.0597 110.226C30.3651 111.156 31.3668 111.668 32.2974 111.366Z" fill="#738BAB"/>
<path fill-rule="evenodd" clip-rule="evenodd" d="M91.447 91.7524L162.485 114.875C163.238 115.12 164.065 114.84 164.509 114.183C164.509 114.183 175.339 98.1245 180.468 90.5199C181.402 89.1311 181.633 87.3871 181.09 85.8065C180.543 84.2224 179.289 82.9898 177.698 82.4713L113.778 61.7034C111.522 60.9717 109.057 61.817 107.725 63.7741L95.3008 82.045C94.7502 82.8584 94.9598 83.9631 95.7696 84.5136C96.583 85.0642 97.6877 84.8546 98.2382 84.0448L110.663 65.7703C111.107 65.1203 111.927 64.8361 112.68 65.0812L176.6 85.8491C177.129 86.0232 177.548 86.4352 177.73 86.9609C177.911 87.4901 177.836 88.0691 177.524 88.5344L162.311 111.085L92.5481 88.3745C91.6139 88.0691 90.6123 88.5805 90.3104 89.5147C90.0049 90.4453 90.5164 91.4469 91.447 91.7524Z" fill="#738BAB"/>
<path fill-rule="evenodd" clip-rule="evenodd" d="M145.798 113.182L91.9975 130.636L38.197 113.182L91.9975 95.6672L145.798 113.182Z" fill="#66B600"/>
<path fill-rule="evenodd" clip-rule="evenodd" d="M74.231 89.8988C73.2755 88.5526 72.455 87.1993 71.766 85.8461C71.322 84.9723 70.2529 84.6242 69.3791 85.0718C68.5053 85.5157 68.1573 86.5849 68.6012 87.4586C69.3649 88.9611 70.2742 90.4635 71.3362 91.9589C71.9045 92.758 73.0127 92.9427 73.8119 92.378C74.611 91.8097 74.7993 90.6979 74.231 89.8988Z" fill="#738BAB"/>
<path fill-rule="evenodd" clip-rule="evenodd" d="M69.3045 78.4577C68.9848 76.4332 68.9706 74.4547 69.2512 72.558C69.3933 71.5884 68.722 70.6862 67.7523 70.5441C66.7826 70.402 65.8805 71.0734 65.7348 72.043C65.408 74.2807 65.4187 76.6178 65.7952 79.0083C65.9479 79.9779 66.8572 80.6386 67.8269 80.4859C68.793 80.3331 69.4572 79.4238 69.3045 78.4577Z" fill="#738BAB"/>
</g>
<defs>
<clipPath id="clip0_1_1760">
<rect width="182.9" height="207" fill="white" transform="translate(0.549988)"/>
</clipPath>
</defs>
</svg>
