<svg width="118" height="122" viewBox="0 0 118 122" fill="none" xmlns="http://www.w3.org/2000/svg">
<ellipse cx="61.5" cy="61" rx="46" ry="46" fill="white"/>
<path d="M47.5455 49.5455C47.718 49.3726 47.9229 49.2354 48.1484 49.1418C48.374 49.0482 48.6158 49 48.8601 49C49.1043 49 49.3461 49.0482 49.5717 49.1418C49.7973 49.2354 50.0022 49.3726 50.1746 49.5455L60.0005 59.3751L69.8263 49.5455C69.999 49.3729 70.2039 49.2359 70.4295 49.1425C70.655 49.0491 70.8968 49.001 71.1409 49.001C71.3851 49.001 71.6268 49.0491 71.8524 49.1425C72.0779 49.2359 72.2829 49.3729 72.4555 49.5455C72.6281 49.7181 72.7651 49.9231 72.8585 50.1486C72.9519 50.3742 73 50.6159 73 50.8601C73 51.1042 72.9519 51.3459 72.8585 51.5715C72.7651 51.7971 72.6281 52.002 72.4555 52.1746L62.6259 62.0005L72.4555 71.8263C72.6281 71.999 72.7651 72.2039 72.8585 72.4295C72.9519 72.655 73 72.8968 73 73.1409C73 73.3851 72.9519 73.6268 72.8585 73.8524C72.7651 74.0779 72.6281 74.2829 72.4555 74.4555C72.2829 74.6281 72.0779 74.7651 71.8524 74.8585C71.6268 74.9519 71.3851 75 71.1409 75C70.8968 75 70.655 74.9519 70.4295 74.8585C70.2039 74.7651 69.999 74.6281 69.8263 74.4555L60.0005 64.6259L50.1746 74.4555C50.002 74.6281 49.7971 74.7651 49.5715 74.8585C49.3459 74.9519 49.1042 75 48.8601 75C48.6159 75 48.3742 74.9519 48.1486 74.8585C47.9231 74.7651 47.7181 74.6281 47.5455 74.4555C47.3729 74.2829 47.2359 74.0779 47.1425 73.8524C47.0491 73.6268 47.001 73.3851 47.001 73.1409C47.001 72.8968 47.0491 72.655 47.1425 72.4295C47.2359 72.2039 47.3729 71.999 47.5455 71.8263L57.3751 62.0005L47.5455 52.1746C47.3726 52.0022 47.2354 51.7973 47.1418 51.5717C47.0482 51.3461 47 51.1043 47 50.8601C47 50.6158 47.0482 50.374 47.1418 50.1484C47.2354 49.9229 47.3726 49.718 47.5455 49.5455Z" fill="#FF0000"/>
<circle cx="68" cy="2.5" r="2.5" fill="white"/>
<circle cx="15.5" cy="10" r="10" fill="white"/>
<circle cx="5.5" cy="86" r="5" fill="white"/>
<circle cx="44" cy="119.5" r="2.5" fill="white"/>
<circle cx="113" cy="58.5" r="2.5" fill="white"/>
<circle cx="107.5" cy="25" r="5" fill="white"/>
<circle cx="110" cy="109.5" r="7.5" fill="white"/>
</svg>
