<svg width="32" height="21" viewBox="0 0 32 21" fill="none" xmlns="http://www.w3.org/2000/svg">
<g clip-path="url(#clip0_2122_6550)">
<path d="M0.00488281 0.5H32.0049V20.5H0.00488281V0.5Z" fill="#3F9C35"/>
<path d="M0.00488281 0.5H32.0049V13.8333H0.00488281V0.5Z" fill="#ED2939"/>
<path d="M0.00488281 0.5H32.0049V7.16667H0.00488281V0.5Z" fill="#00B9E4"/>
<path d="M15.1996 13.5C17.1878 13.5 18.7996 12.1569 18.7996 10.5C18.7996 8.84315 17.1878 7.5 15.1996 7.5C13.2114 7.5 11.5996 8.84315 11.5996 10.5C11.5996 12.1569 13.2114 13.5 15.1996 13.5Z" fill="white"/>
<path d="M16 13C17.6569 13 19 11.8807 19 10.5C19 9.11929 17.6569 8 16 8C14.3431 8 13 9.11929 13 10.5C13 11.8807 14.3431 13 16 13Z" fill="#ED2939"/>
<path d="M19.2002 8.83325L19.5852 9.72909L20.6152 9.32075L20.1252 10.1833L21.2002 10.4999L20.1252 10.8208L20.6152 11.6791L19.5852 11.2708L19.2002 12.1666L18.8152 11.2708L17.7852 11.6791L18.2752 10.8208L17.2002 10.4999L18.2752 10.1791L17.7852 9.32075L18.8152 9.72909L19.2002 8.83325Z" fill="white"/>
</g>
<defs>
<clipPath id="clip0_2122_6550">
<rect width="32" height="20" fill="white" transform="translate(0 0.5)"/>
</clipPath>
</defs>
</svg>
