<svg width="24" height="25" viewBox="0 0 24 25" fill="none" xmlns="http://www.w3.org/2000/svg">
<path d="M8.06522 4.56499H3.64722C3.31471 4.53383 2.98029 4.59947 2.68422 4.75399C2.48212 4.88564 2.31843 5.06838 2.20972 5.28368C2.10101 5.49899 2.05116 5.73921 2.06522 5.97999V10.565C2.06522 10.6976 2.1179 10.8248 2.21167 10.9185C2.30544 11.0123 2.43261 11.065 2.56522 11.065C2.69783 11.065 2.82501 11.0123 2.91877 10.9185C3.01254 10.8248 3.06522 10.6976 3.06522 10.565V6.28499C3.04479 6.11256 3.04951 5.93807 3.07922 5.76699C3.15622 5.53099 3.39822 5.56699 3.59322 5.56699H8.06522C8.19783 5.56699 8.32501 5.51431 8.41878 5.42054C8.51254 5.32678 8.56522 5.1996 8.56522 5.06699C8.56522 4.93438 8.51254 4.80721 8.41878 4.71344C8.32501 4.61967 8.19783 4.56699 8.06522 4.56699V4.56499ZM2.06222 14.437V18.855C2.03112 19.1875 2.09675 19.5219 2.25122 19.818C2.38303 20.0202 2.56594 20.1839 2.78142 20.2926C2.9969 20.4013 3.23729 20.4511 3.47822 20.437H8.06222C8.19483 20.437 8.32201 20.3843 8.41577 20.2905C8.50954 20.1968 8.56222 20.0696 8.56222 19.937C8.56222 19.8044 8.50954 19.6772 8.41577 19.5834C8.32201 19.4897 8.19483 19.437 8.06222 19.437H3.78222C3.60976 19.4569 3.43535 19.4522 3.26422 19.423C3.02822 19.346 3.06422 19.104 3.06422 18.909V14.437C3.06422 14.3044 3.01154 14.1772 2.91777 14.0834C2.82401 13.9897 2.69683 13.937 2.56422 13.937C2.43161 13.937 2.30444 13.9897 2.21067 14.0834C2.1169 14.1772 2.06422 14.3044 2.06422 14.437H2.06222ZM15.9332 20.435H20.3512C20.6837 20.4662 21.0182 20.4005 21.3142 20.246C21.5163 20.1143 21.68 19.9316 21.7887 19.7163C21.8974 19.501 21.9473 19.2608 21.9332 19.02V14.435C21.9332 14.3024 21.8805 14.1752 21.7868 14.0814C21.693 13.9877 21.5658 13.935 21.4332 13.935C21.3006 13.935 21.1734 13.9877 21.0797 14.0814C20.9859 14.1752 20.9332 14.3024 20.9332 14.435V18.715C20.9536 18.8874 20.9489 19.0619 20.9192 19.233C20.8422 19.469 20.6002 19.433 20.4052 19.433H15.9332C15.8006 19.433 15.6734 19.4857 15.5797 19.5794C15.4859 19.6732 15.4332 19.8004 15.4332 19.933C15.4332 20.0656 15.4859 20.1928 15.5797 20.2865C15.6734 20.3803 15.8006 20.433 15.9332 20.433V20.435ZM21.9362 10.563V6.14499C21.9673 5.81249 21.9017 5.47808 21.7472 5.18199C21.6154 4.97981 21.4325 4.81607 21.217 4.70737C21.0015 4.59866 20.7612 4.54885 20.5202 4.56299H15.9362C15.8036 4.56299 15.6764 4.61567 15.5827 4.70944C15.4889 4.80321 15.4362 4.93038 15.4362 5.06299C15.4362 5.1956 15.4889 5.32278 15.5827 5.41654C15.6764 5.51031 15.8036 5.56299 15.9362 5.56299H20.2162C20.3887 5.54308 20.5631 5.54779 20.7342 5.57699C20.9702 5.65399 20.9342 5.89599 20.9342 6.09099V10.563C20.9342 10.6956 20.9869 10.8228 21.0807 10.9165C21.1744 11.0103 21.3016 11.063 21.4342 11.063C21.5668 11.063 21.694 11.0103 21.7878 10.9165C21.8815 10.8228 21.9342 10.6956 21.9342 10.563H21.9362Z" fill="#FF8C03"/>
<path d="M11.998 8.643C11.998 8.36686 11.7742 8.14301 11.498 8.14301C11.2219 8.14301 10.998 8.36686 10.998 8.643V16.352C10.998 16.6281 11.2219 16.852 11.498 16.852C11.7742 16.852 11.998 16.6281 11.998 16.352V8.643Z" fill="#FF8C03"/>
<path d="M15.248 8.643C15.248 8.36686 15.0242 8.14301 14.748 8.14301C14.4719 8.14301 14.248 8.36686 14.248 8.643V16.352C14.248 16.6281 14.4719 16.852 14.748 16.852C15.0242 16.852 15.248 16.6281 15.248 16.352V8.643Z" fill="#FF8C03"/>
<path d="M17.498 8.643C17.498 8.36686 17.2742 8.14301 16.998 8.14301C16.7219 8.14301 16.498 8.36686 16.498 8.643V16.352C16.498 16.6281 16.7219 16.852 16.998 16.852C17.2742 16.852 17.498 16.6281 17.498 16.352V8.643Z" fill="#FF8C03"/>
<path d="M7.49805 8.643C7.49805 8.36686 7.27419 8.14301 6.99805 8.14301C6.7219 8.14301 6.49805 8.36686 6.49805 8.643V16.352C6.49805 16.6281 6.7219 16.852 6.99805 16.852C7.27419 16.852 7.49805 16.6281 7.49805 16.352V8.643Z" fill="#FF8C03"/>
<path d="M9.99805 8.893C9.99805 8.47879 9.66226 8.14301 9.24805 8.14301C8.83383 8.14301 8.49805 8.47879 8.49805 8.893V16.102C8.49805 16.5162 8.83383 16.852 9.24805 16.852C9.66226 16.852 9.99805 16.5162 9.99805 16.102V8.893Z" fill="#FF8C03"/>
</svg>
