<svg width="20" height="20" viewBox="0 0 20 20" fill="none" xmlns="http://www.w3.org/2000/svg">
<path d="M5.83329 3.33329C5.83329 2.89127 6.00889 2.46734 6.32145 2.15478C6.63401 1.84222 7.05793 1.66663 7.49996 1.66663H12.5C12.942 1.66663 13.3659 1.84222 13.6785 2.15478C13.991 2.46734 14.1666 2.89127 14.1666 3.33329V4.99996H17.5C17.721 4.99996 17.9329 5.08776 18.0892 5.24404C18.2455 5.40032 18.3333 5.61228 18.3333 5.83329C18.3333 6.05431 18.2455 6.26627 18.0892 6.42255C17.9329 6.57883 17.721 6.66663 17.5 6.66663H16.6091L15.8866 16.785C15.8567 17.2054 15.6685 17.599 15.3601 17.8863C15.0516 18.1736 14.6457 18.3333 14.2241 18.3333H5.77496C5.35341 18.3333 4.94751 18.1736 4.63903 17.8863C4.33055 17.599 4.14239 17.2054 4.11246 16.785L3.39163 6.66663H2.49996C2.27895 6.66663 2.06698 6.57883 1.9107 6.42255C1.75442 6.26627 1.66663 6.05431 1.66663 5.83329C1.66663 5.61228 1.75442 5.40032 1.9107 5.24404C2.06698 5.08776 2.27895 4.99996 2.49996 4.99996H5.83329V3.33329ZM7.49996 4.99996H12.5V3.33329H7.49996V4.99996ZM5.06163 6.66663L5.77579 16.6666H14.225L14.9391 6.66663H5.06163ZM8.33329 8.33329C8.55431 8.33329 8.76627 8.42109 8.92255 8.57737C9.07883 8.73365 9.16663 8.94561 9.16663 9.16663V14.1666C9.16663 14.3876 9.07883 14.5996 8.92255 14.7559C8.76627 14.9122 8.55431 15 8.33329 15C8.11228 15 7.90032 14.9122 7.74404 14.7559C7.58776 14.5996 7.49996 14.3876 7.49996 14.1666V9.16663C7.49996 8.94561 7.58776 8.73365 7.74404 8.57737C7.90032 8.42109 8.11228 8.33329 8.33329 8.33329ZM11.6666 8.33329C11.8876 8.33329 12.0996 8.42109 12.2559 8.57737C12.4122 8.73365 12.5 8.94561 12.5 9.16663V14.1666C12.5 14.3876 12.4122 14.5996 12.2559 14.7559C12.0996 14.9122 11.8876 15 11.6666 15C11.4456 15 11.2337 14.9122 11.0774 14.7559C10.9211 14.5996 10.8333 14.3876 10.8333 14.1666V9.16663C10.8333 8.94561 10.9211 8.73365 11.0774 8.57737C11.2337 8.42109 11.4456 8.33329 11.6666 8.33329Z" fill="#FB4A59"/>
</svg>
