<svg width="20" height="20" viewBox="0 0 20 20" fill="none" xmlns="http://www.w3.org/2000/svg">
<path d="M12.5 5.83333H7.49996M12.5 9.16667H7.49996M12.5 12.5H9.16663M4.16663 2.5H15.8333V17.5L14.9733 16.7633C14.6712 16.5045 14.2865 16.3622 13.8887 16.3622C13.4909 16.3622 13.1062 16.5045 12.8041 16.7633L11.9441 17.5L11.085 16.7633C10.7828 16.5042 10.398 16.3618 9.99996 16.3618C9.60195 16.3618 9.21708 16.5042 8.91496 16.7633L8.05579 17.5L7.19579 16.7633C6.89373 16.5045 6.50903 16.3622 6.11121 16.3622C5.71339 16.3622 5.32869 16.5045 5.02663 16.7633L4.16663 17.5V2.5Z" stroke="#66B600" stroke-width="1.5" stroke-linecap="round" stroke-linejoin="round"/>
</svg>
