<svg width="25" height="24" viewBox="0 0 25 24" fill="none" xmlns="http://www.w3.org/2000/svg">
<path d="M12.5 12H19.5M19.5 12L16.5 15M19.5 12L16.5 9M19.5 6V5C19.5 4.46957 19.2893 3.96086 18.9142 3.58579C18.5391 3.21071 18.0304 3 17.5 3H7.5C6.96957 3 6.46086 3.21071 6.08579 3.58579C5.71071 3.96086 5.5 4.46957 5.5 5V19C5.5 19.5304 5.71071 20.0391 6.08579 20.4142C6.46086 20.7893 6.96957 21 7.5 21H17.5C18.0304 21 18.5391 20.7893 18.9142 20.4142C19.2893 20.0391 19.5 19.5304 19.5 19V18" stroke="#FF8C03" stroke-width="1.5" stroke-linecap="round" stroke-linejoin="round"/>
</svg>
