<svg width="20" height="20" viewBox="0 0 20 20" fill="none" xmlns="http://www.w3.org/2000/svg">
<path d="M13.125 12.0833C12.9592 12.0833 12.8002 12.1491 12.683 12.2664C12.5658 12.3836 12.5 12.5425 12.5 12.7083C12.5 12.8741 12.5658 13.033 12.683 13.1502C12.8002 13.2674 12.9592 13.3333 13.125 13.3333H15.2083C15.3741 13.3333 15.533 13.2674 15.6502 13.1502C15.7674 13.033 15.8333 12.8741 15.8333 12.7083C15.8333 12.5425 15.7674 12.3836 15.6502 12.2664C15.533 12.1491 15.3741 12.0833 15.2083 12.0833H13.125ZM1.66663 6.87496C1.66663 6.15666 1.95197 5.46779 2.45988 4.95988C2.96779 4.45197 3.65666 4.16663 4.37496 4.16663H15.625C15.9806 4.16663 16.3328 4.23668 16.6614 4.37279C16.99 4.50889 17.2885 4.70839 17.54 4.95988C17.7915 5.21137 17.991 5.50994 18.1271 5.83853C18.2632 6.16712 18.3333 6.5193 18.3333 6.87496V13.125C18.3333 13.4806 18.2632 13.8328 18.1271 14.1614C17.991 14.49 17.7915 14.7885 17.54 15.04C17.2885 15.2915 16.99 15.491 16.6614 15.6271C16.3328 15.7632 15.9806 15.8333 15.625 15.8333H4.37496C3.65666 15.8333 2.96779 15.548 2.45988 15.04C1.95197 14.5321 1.66663 13.8433 1.66663 13.125V6.87496ZM17.0833 7.91663V6.87496C17.0833 6.48819 16.9296 6.11725 16.6562 5.84376C16.3827 5.57027 16.0117 5.41663 15.625 5.41663H4.37496C3.98819 5.41663 3.61725 5.57027 3.34376 5.84376C3.07027 6.11725 2.91663 6.48819 2.91663 6.87496V7.91663H17.0833ZM2.91663 9.16663V13.125C2.91663 13.93 3.56996 14.5833 4.37496 14.5833H15.625C16.0117 14.5833 16.3827 14.4296 16.6562 14.1562C16.9296 13.8827 17.0833 13.5117 17.0833 13.125V9.16663H2.91663Z" fill="#369BFF"/>
</svg>
