<svg width="20" height="20" viewBox="0 0 20 20" fill="none" xmlns="http://www.w3.org/2000/svg">
<path d="M10 2.08337C10.9801 2.08307 11.9345 2.39695 12.723 2.97893C13.5116 3.56092 14.0929 4.38035 14.3815 5.31698C14.6701 6.2536 14.6509 7.25807 14.3267 8.18297C14.0024 9.10787 13.3903 9.90448 12.58 10.4559C13.9864 10.9717 15.2062 11.8966 16.0824 13.1116C16.9587 14.3266 17.4512 15.7761 17.4967 17.2734C17.5009 17.3565 17.4885 17.4396 17.4602 17.5179C17.4319 17.5961 17.3883 17.6679 17.3318 17.7291C17.2754 17.7903 17.2073 17.8395 17.1316 17.874C17.0559 17.9085 16.974 17.9276 16.8908 17.93C16.8076 17.9325 16.7248 17.9183 16.6472 17.8883C16.5696 17.8583 16.4987 17.8131 16.4388 17.7553C16.3789 17.6976 16.3311 17.6284 16.2982 17.552C16.2654 17.4755 16.2481 17.3933 16.2475 17.31C16.1979 15.6863 15.518 14.1456 14.3518 13.0146C13.1857 11.8835 11.625 11.251 10.0004 11.251C8.37587 11.251 6.81516 11.8835 5.64902 13.0146C4.48288 14.1456 3.80296 15.6863 3.75333 17.31C3.74836 17.4758 3.67774 17.6328 3.55702 17.7465C3.43629 17.8602 3.27534 17.9213 3.10958 17.9163C2.94382 17.9113 2.78683 17.8407 2.67313 17.72C2.55944 17.5992 2.49836 17.4383 2.50333 17.2725C2.54896 15.7754 3.04158 14.3261 3.9178 13.1113C4.79402 11.8965 6.01375 10.9717 7.42 10.4559C6.60974 9.90448 5.99757 9.10787 5.67333 8.18297C5.3491 7.25807 5.32989 6.2536 5.61851 5.31698C5.90713 4.38035 6.48839 3.56092 7.27697 2.97893C8.06555 2.39695 9.01992 2.08307 10 2.08337ZM6.66667 6.66671C6.66667 7.55076 7.01786 8.39861 7.64298 9.02373C8.2681 9.64885 9.11594 10 10 10C10.8841 10 11.7319 9.64885 12.357 9.02373C12.9821 8.39861 13.3333 7.55076 13.3333 6.66671C13.3333 5.78265 12.9821 4.93481 12.357 4.30968C11.7319 3.68456 10.8841 3.33337 10 3.33337C9.11594 3.33337 8.2681 3.68456 7.64298 4.30968C7.01786 4.93481 6.66667 5.78265 6.66667 6.66671Z" fill="#FF8C03"/>
</svg>
