<svg width="20" height="20" viewBox="0 0 20 20" fill="none" xmlns="http://www.w3.org/2000/svg">
<path d="M3 9.01802V14L3.005 14.176C3.04989 14.9399 3.38499 15.6578 3.94174 16.1827C4.49849 16.7077 5.23479 17.0001 6 17H10.379L10.555 16.992C11.0227 16.9507 11.461 16.746 11.793 16.414L16.414 11.793L16.534 11.663C16.835 11.3032 16.9999 10.8491 17 10.38V6.00002L16.995 5.82402C16.9501 5.06013 16.615 4.34226 16.0583 3.8173C15.5015 3.29235 14.7652 2.99998 14 3.00002H9.463C9.717 3.30002 9.879 3.64402 9.953 4.00002H14L14.15 4.00502C14.6532 4.04286 15.1234 4.26949 15.4665 4.63947C15.8096 5.00945 16.0002 5.49544 16 6.00002V10H13L12.824 10.005C12.0601 10.0499 11.3422 10.385 10.8173 10.9418C10.2923 11.4985 9.99996 12.2348 10 13V16H6L5.85 15.995C5.34684 15.9572 4.87659 15.7305 4.5335 15.3606C4.19041 14.9906 3.99984 14.5046 4 14V9.81002C3.76911 9.71825 3.55971 9.57968 3.385 9.40302L3 9.01802ZM13 11L15.783 11.001C15.759 11.031 15.7337 11.0594 15.707 11.086L11.086 15.707L11 15.781V13L11.005 12.85C11.0428 12.3469 11.2695 11.8766 11.6395 11.5335C12.0094 11.1904 12.4954 10.9999 13 11ZM8.538 3.38702L6.611 1.46002C6.44199 1.29107 6.23506 1.16495 6.00745 1.09216C5.77983 1.01937 5.53812 1.00201 5.30244 1.04153C5.06676 1.08106 4.84394 1.17632 4.65252 1.31939C4.46111 1.46245 4.30665 1.64918 4.202 1.86402L3.4 3.51002C3.28376 3.74829 3.07766 3.93066 2.827 4.01702L1.725 4.39702C1.56467 4.45239 1.42105 4.54764 1.30767 4.6738C1.19429 4.79996 1.11486 4.95289 1.07685 5.1182C1.03885 5.28351 1.04352 5.45577 1.09043 5.61878C1.13734 5.78179 1.22494 5.93019 1.345 6.05002L2.293 6.99802L1 8.29002V8.99702H1.707L3 7.70602L3.947 8.65302C4.06683 8.77308 4.21523 8.86068 4.37824 8.90759C4.54125 8.9545 4.71351 8.95917 4.87882 8.92117C5.04413 8.88316 5.19706 8.80373 5.32322 8.69035C5.44938 8.57697 5.54463 8.43335 5.6 8.27302L5.98 7.17102C6.06659 6.92074 6.24892 6.71503 6.487 6.59902L8.134 5.79602C8.34884 5.69137 8.53557 5.53691 8.67863 5.3455C8.8217 5.15408 8.91696 4.93126 8.95649 4.69558C8.99601 4.4599 8.97865 4.21819 8.90586 3.99057C8.83307 3.76296 8.70695 3.55603 8.538 3.38702Z" fill="#7E59E7"/>
</svg>
