<svg width="20" height="20" viewBox="0 0 20 20" fill="none" xmlns="http://www.w3.org/2000/svg">
<g clip-path="url(#clip0_1_563)">
<path d="M1.66666 13.3334C1.66666 10.9767 1.66666 9.79754 2.39916 9.06587C3.13082 8.33337 4.30999 8.33337 6.66666 8.33337H13.3333C15.69 8.33337 16.8692 8.33337 17.6008 9.06587C18.3333 9.79754 18.3333 10.9767 18.3333 13.3334C18.3333 15.69 18.3333 16.8692 17.6008 17.6009C16.8692 18.3334 15.69 18.3334 13.3333 18.3334H6.66666C4.30999 18.3334 3.13082 18.3334 2.39916 17.6009C1.66666 16.8692 1.66666 15.69 1.66666 13.3334Z" stroke="#FFAA2A" stroke-width="1.5"/>
<path d="M5 8.33335V6.66669C5 5.3406 5.52678 4.06883 6.46447 3.13115C7.40215 2.19347 8.67392 1.66669 10 1.66669C11.3261 1.66669 12.5979 2.19347 13.5355 3.13115C14.4732 4.06883 15 5.3406 15 6.66669V8.33335" stroke="#FFAA2A" stroke-width="1.5" stroke-linecap="round"/>
<path d="M6.66666 13.3334H6.67416M9.99249 13.3334H9.99999M13.3258 13.3334H13.3333" stroke="#FFAA2A" stroke-width="2" stroke-linecap="round" stroke-linejoin="round"/>
</g>
<defs>
<clipPath id="clip0_1_563">
<rect width="20" height="20" fill="white"/>
</clipPath>
</defs>
</svg>
