<svg width="25" height="24" viewBox="0 0 25 24" fill="none" xmlns="http://www.w3.org/2000/svg">
<g clip-path="url(#clip0_672_256)">
<path d="M2.75 1.5C2.55109 1.5 2.36032 1.57902 2.21967 1.71967C2.07902 1.86032 2 2.05109 2 2.25V6.75C2 6.94891 1.92098 7.13968 1.78033 7.28033C1.63968 7.42098 1.44891 7.5 1.25 7.5C1.05109 7.5 0.860322 7.42098 0.71967 7.28033C0.579018 7.13968 0.5 6.94891 0.5 6.75V2.25C0.5 1.65326 0.737053 1.08097 1.15901 0.65901C1.58097 0.237053 2.15326 0 2.75 0L7.25 0C7.44891 0 7.63968 0.0790176 7.78033 0.21967C7.92098 0.360322 8 0.551088 8 0.75C8 0.948912 7.92098 1.13968 7.78033 1.28033C7.63968 1.42098 7.44891 1.5 7.25 1.5H2.75ZM17 0.75C17 0.551088 17.079 0.360322 17.2197 0.21967C17.3603 0.0790176 17.5511 0 17.75 0L22.25 0C22.8467 0 23.419 0.237053 23.841 0.65901C24.2629 1.08097 24.5 1.65326 24.5 2.25V6.75C24.5 6.94891 24.421 7.13968 24.2803 7.28033C24.1397 7.42098 23.9489 7.5 23.75 7.5C23.5511 7.5 23.3603 7.42098 23.2197 7.28033C23.079 7.13968 23 6.94891 23 6.75V2.25C23 2.05109 22.921 1.86032 22.7803 1.71967C22.6397 1.57902 22.4489 1.5 22.25 1.5H17.75C17.5511 1.5 17.3603 1.42098 17.2197 1.28033C17.079 1.13968 17 0.948912 17 0.75ZM1.25 16.5C1.44891 16.5 1.63968 16.579 1.78033 16.7197C1.92098 16.8603 2 17.0511 2 17.25V21.75C2 21.9489 2.07902 22.1397 2.21967 22.2803C2.36032 22.421 2.55109 22.5 2.75 22.5H7.25C7.44891 22.5 7.63968 22.579 7.78033 22.7197C7.92098 22.8603 8 23.0511 8 23.25C8 23.4489 7.92098 23.6397 7.78033 23.7803C7.63968 23.921 7.44891 24 7.25 24H2.75C2.15326 24 1.58097 23.7629 1.15901 23.341C0.737053 22.919 0.5 22.3467 0.5 21.75L0.5 17.25C0.5 17.0511 0.579018 16.8603 0.71967 16.7197C0.860322 16.579 1.05109 16.5 1.25 16.5ZM23.75 16.5C23.9489 16.5 24.1397 16.579 24.2803 16.7197C24.421 16.8603 24.5 17.0511 24.5 17.25V21.75C24.5 22.3467 24.2629 22.919 23.841 23.341C23.419 23.7629 22.8467 24 22.25 24H17.75C17.5511 24 17.3603 23.921 17.2197 23.7803C17.079 23.6397 17 23.4489 17 23.25C17 23.0511 17.079 22.8603 17.2197 22.7197C17.3603 22.579 17.5511 22.5 17.75 22.5H22.25C22.4489 22.5 22.6397 22.421 22.7803 22.2803C22.921 22.1397 23 21.9489 23 21.75V17.25C23 17.0511 23.079 16.8603 23.2197 16.7197C23.3603 16.579 23.5511 16.5 23.75 16.5ZM5 6.75C5 6.55109 5.07902 6.36032 5.21967 6.21967C5.36032 6.07902 5.55109 6 5.75 6C5.94891 6 6.13968 6.07902 6.28033 6.21967C6.42098 6.36032 6.5 6.55109 6.5 6.75V17.25C6.5 17.4489 6.42098 17.6397 6.28033 17.7803C6.13968 17.921 5.94891 18 5.75 18C5.55109 18 5.36032 17.921 5.21967 17.7803C5.07902 17.6397 5 17.4489 5 17.25V6.75ZM8 6.75C8 6.55109 8.07902 6.36032 8.21967 6.21967C8.36032 6.07902 8.55109 6 8.75 6C8.94891 6 9.13968 6.07902 9.28033 6.21967C9.42098 6.36032 9.5 6.55109 9.5 6.75V17.25C9.5 17.4489 9.42098 17.6397 9.28033 17.7803C9.13968 17.921 8.94891 18 8.75 18C8.55109 18 8.36032 17.921 8.21967 17.7803C8.07902 17.6397 8 17.4489 8 17.25V6.75ZM11 6.75C11 6.55109 11.079 6.36032 11.2197 6.21967C11.3603 6.07902 11.5511 6 11.75 6C11.9489 6 12.1397 6.07902 12.2803 6.21967C12.421 6.36032 12.5 6.55109 12.5 6.75V17.25C12.5 17.4489 12.421 17.6397 12.2803 17.7803C12.1397 17.921 11.9489 18 11.75 18C11.5511 18 11.3603 17.921 11.2197 17.7803C11.079 17.6397 11 17.4489 11 17.25V6.75ZM14 6.75C14 6.55109 14.079 6.36032 14.2197 6.21967C14.3603 6.07902 14.5511 6 14.75 6H16.25C16.4489 6 16.6397 6.07902 16.7803 6.21967C16.921 6.36032 17 6.55109 17 6.75V17.25C17 17.4489 16.921 17.6397 16.7803 17.7803C16.6397 17.921 16.4489 18 16.25 18H14.75C14.5511 18 14.3603 17.921 14.2197 17.7803C14.079 17.6397 14 17.4489 14 17.25V6.75ZM18.5 6.75C18.5 6.55109 18.579 6.36032 18.7197 6.21967C18.8603 6.07902 19.0511 6 19.25 6C19.4489 6 19.6397 6.07902 19.7803 6.21967C19.921 6.36032 20 6.55109 20 6.75V17.25C20 17.4489 19.921 17.6397 19.7803 17.7803C19.6397 17.921 19.4489 18 19.25 18C19.0511 18 18.8603 17.921 18.7197 17.7803C18.579 17.6397 18.5 17.4489 18.5 17.25V6.75Z" fill="#757575"/>
</g>
<defs>
<clipPath id="clip0_672_256">
<rect width="24" height="24" fill="white" transform="translate(0.5)"/>
</clipPath>
</defs>
</svg>
