<svg width="25" height="24" viewBox="0 0 25 24" fill="none" xmlns="http://www.w3.org/2000/svg">
<g clip-path="url(#clip0_684_1853)">
<path d="M12.7212 3.61727H15.5176L14.4585 4.67819C14.1842 4.95303 14.1846 5.39816 14.4594 5.67263C14.7337 5.94638 15.179 5.94693 15.4537 5.67172L17.7092 3.41238C17.9873 3.13387 17.9837 2.67629 17.6931 2.40273L15.4537 0.159508C15.1794 -0.115333 14.7343 -0.1157 14.4594 0.158593C14.1846 0.433068 14.1842 0.878197 14.4585 1.15304L15.5147 2.21102C12.3284 2.21102 12.7258 2.21084 12.691 2.21084C5.25783 2.21084 0.539565 10.3006 4.26686 16.8031C4.45985 17.1398 4.88924 17.2566 5.22652 17.0634C5.56343 16.8703 5.67989 16.4407 5.48689 16.1038C2.27907 10.5077 6.38521 3.58541 12.7212 3.61727Z" fill="#66B600"/>
<path d="M21.1344 7.10302C20.9414 6.76629 20.5117 6.64965 20.1748 6.84264C19.8379 7.03582 19.7214 7.46557 19.9146 7.80248C23.098 13.3561 19.0802 20.289 12.7008 20.289H9.88369L10.9428 19.2281C11.2172 18.9532 11.2169 18.5081 10.942 18.2336C10.6672 17.9593 10.2219 17.9597 9.94759 18.2346L7.69209 20.4939C7.41634 20.77 7.41487 21.2283 7.70912 21.5045L9.94759 23.7468C10.2219 24.0214 10.667 24.0222 10.942 23.7477C11.2169 23.4732 11.2172 23.0281 10.943 22.7532L9.8868 21.6953H12.7096C20.1466 21.6951 24.861 13.6042 21.1344 7.10302Z" fill="#66B600"/>
<path d="M11.9976 9.84375H14.8101C15.1982 9.84375 15.5132 9.52881 15.5132 9.14063C15.5132 8.75226 15.1982 8.4375 14.8101 8.4375H13.4038V7.73438C13.4038 7.34601 13.0889 7.03125 12.7007 7.03125C12.3123 7.03125 11.9976 7.34601 11.9976 7.73438V8.4375C10.8343 8.4375 9.88818 9.38379 9.88818 10.5469C9.88818 11.71 10.8343 12.6563 11.9976 12.6563H13.4036C13.7914 12.6563 14.1069 12.9716 14.1069 13.3594C14.1069 13.7472 13.7933 14.0627 13.4036 14.0627C12.6771 14.0627 12.7007 14.0625 12.7007 14.0625C12.6996 14.0625 12.6985 14.0627 12.6974 14.0627C12.6701 14.0627 10.5756 14.0625 10.5913 14.0625C10.2029 14.0625 9.88818 14.3773 9.88818 14.7654C9.888 15.1538 10.2028 15.4686 10.5911 15.4688H11.9976V16.1719C11.9976 16.5601 12.3123 16.875 12.7007 16.875C13.0889 16.875 13.4038 16.5601 13.4038 16.1719V15.4689C14.5695 15.4689 15.5132 14.5258 15.5132 13.3594C15.5132 12.1963 14.5667 11.25 13.4036 11.25H11.9976C11.6097 11.25 11.2944 10.9345 11.2944 10.5469C11.2944 10.1591 11.6097 9.84375 11.9976 9.84375Z" fill="#66B600"/>
</g>
<defs>
<clipPath id="clip0_684_1853">
<rect width="24" height="24" fill="white" transform="translate(0.666504)"/>
</clipPath>
</defs>
</svg>
