<svg width="25" height="24" viewBox="0 0 25 24" fill="none" xmlns="http://www.w3.org/2000/svg">
<g clip-path="url(#clip0_672_115)">
<path d="M3.08337 1.5C2.88446 1.5 2.6937 1.57902 2.55304 1.71967C2.41239 1.86032 2.33337 2.05109 2.33337 2.25V6.75C2.33337 6.94891 2.25436 7.13968 2.1137 7.28033C1.97305 7.42098 1.78229 7.5 1.58337 7.5C1.38446 7.5 1.1937 7.42098 1.05304 7.28033C0.912392 7.13968 0.833374 6.94891 0.833374 6.75V2.25C0.833374 1.65326 1.07043 1.08097 1.49238 0.65901C1.91434 0.237053 2.48664 0 3.08337 0L7.58337 0C7.78229 0 7.97305 0.0790176 8.1137 0.21967C8.25436 0.360322 8.33337 0.551088 8.33337 0.75C8.33337 0.948912 8.25436 1.13968 8.1137 1.28033C7.97305 1.42098 7.78229 1.5 7.58337 1.5H3.08337ZM17.3334 0.75C17.3334 0.551088 17.4124 0.360322 17.553 0.21967C17.6937 0.0790176 17.8845 0 18.0834 0L22.5834 0C23.1801 0 23.7524 0.237053 24.1744 0.65901C24.5963 1.08097 24.8334 1.65326 24.8334 2.25V6.75C24.8334 6.94891 24.7544 7.13968 24.6137 7.28033C24.4731 7.42098 24.2823 7.5 24.0834 7.5C23.8845 7.5 23.6937 7.42098 23.553 7.28033C23.4124 7.13968 23.3334 6.94891 23.3334 6.75V2.25C23.3334 2.05109 23.2544 1.86032 23.1137 1.71967C22.9731 1.57902 22.7823 1.5 22.5834 1.5H18.0834C17.8845 1.5 17.6937 1.42098 17.553 1.28033C17.4124 1.13968 17.3334 0.948912 17.3334 0.75ZM1.58337 16.5C1.78229 16.5 1.97305 16.579 2.1137 16.7197C2.25436 16.8603 2.33337 17.0511 2.33337 17.25V21.75C2.33337 21.9489 2.41239 22.1397 2.55304 22.2803C2.6937 22.421 2.88446 22.5 3.08337 22.5H7.58337C7.78229 22.5 7.97305 22.579 8.1137 22.7197C8.25436 22.8603 8.33337 23.0511 8.33337 23.25C8.33337 23.4489 8.25436 23.6397 8.1137 23.7803C7.97305 23.921 7.78229 24 7.58337 24H3.08337C2.48664 24 1.91434 23.7629 1.49238 23.341C1.07043 22.919 0.833374 22.3467 0.833374 21.75L0.833374 17.25C0.833374 17.0511 0.912392 16.8603 1.05304 16.7197C1.1937 16.579 1.38446 16.5 1.58337 16.5ZM24.0834 16.5C24.2823 16.5 24.4731 16.579 24.6137 16.7197C24.7544 16.8603 24.8334 17.0511 24.8334 17.25V21.75C24.8334 22.3467 24.5963 22.919 24.1744 23.341C23.7524 23.7629 23.1801 24 22.5834 24H18.0834C17.8845 24 17.6937 23.921 17.553 23.7803C17.4124 23.6397 17.3334 23.4489 17.3334 23.25C17.3334 23.0511 17.4124 22.8603 17.553 22.7197C17.6937 22.579 17.8845 22.5 18.0834 22.5H22.5834C22.7823 22.5 22.9731 22.421 23.1137 22.2803C23.2544 22.1397 23.3334 21.9489 23.3334 21.75V17.25C23.3334 17.0511 23.4124 16.8603 23.553 16.7197C23.6937 16.579 23.8845 16.5 24.0834 16.5ZM5.33337 6.75C5.33337 6.55109 5.41239 6.36032 5.55304 6.21967C5.6937 6.07902 5.88446 6 6.08337 6C6.28229 6 6.47305 6.07902 6.6137 6.21967C6.75436 6.36032 6.83337 6.55109 6.83337 6.75V17.25C6.83337 17.4489 6.75436 17.6397 6.6137 17.7803C6.47305 17.921 6.28229 18 6.08337 18C5.88446 18 5.6937 17.921 5.55304 17.7803C5.41239 17.6397 5.33337 17.4489 5.33337 17.25V6.75ZM8.33337 6.75C8.33337 6.55109 8.41239 6.36032 8.55304 6.21967C8.6937 6.07902 8.88446 6 9.08337 6C9.28229 6 9.47305 6.07902 9.6137 6.21967C9.75436 6.36032 9.83337 6.55109 9.83337 6.75V17.25C9.83337 17.4489 9.75436 17.6397 9.6137 17.7803C9.47305 17.921 9.28229 18 9.08337 18C8.88446 18 8.6937 17.921 8.55304 17.7803C8.41239 17.6397 8.33337 17.4489 8.33337 17.25V6.75ZM11.3334 6.75C11.3334 6.55109 11.4124 6.36032 11.553 6.21967C11.6937 6.07902 11.8845 6 12.0834 6C12.2823 6 12.4731 6.07902 12.6137 6.21967C12.7544 6.36032 12.8334 6.55109 12.8334 6.75V17.25C12.8334 17.4489 12.7544 17.6397 12.6137 17.7803C12.4731 17.921 12.2823 18 12.0834 18C11.8845 18 11.6937 17.921 11.553 17.7803C11.4124 17.6397 11.3334 17.4489 11.3334 17.25V6.75ZM14.3334 6.75C14.3334 6.55109 14.4124 6.36032 14.553 6.21967C14.6937 6.07902 14.8845 6 15.0834 6H16.5834C16.7823 6 16.9731 6.07902 17.1137 6.21967C17.2544 6.36032 17.3334 6.55109 17.3334 6.75V17.25C17.3334 17.4489 17.2544 17.6397 17.1137 17.7803C16.9731 17.921 16.7823 18 16.5834 18H15.0834C14.8845 18 14.6937 17.921 14.553 17.7803C14.4124 17.6397 14.3334 17.4489 14.3334 17.25V6.75ZM18.8334 6.75C18.8334 6.55109 18.9124 6.36032 19.053 6.21967C19.1937 6.07902 19.3845 6 19.5834 6C19.7823 6 19.9731 6.07902 20.1137 6.21967C20.2544 6.36032 20.3334 6.55109 20.3334 6.75V17.25C20.3334 17.4489 20.2544 17.6397 20.1137 17.7803C19.9731 17.921 19.7823 18 19.5834 18C19.3845 18 19.1937 17.921 19.053 17.7803C18.9124 17.6397 18.8334 17.4489 18.8334 17.25V6.75Z" fill="#66B600"/>
</g>
<defs>
<clipPath id="clip0_672_115">
<rect width="24" height="24" fill="white" transform="translate(0.833374)"/>
</clipPath>
</defs>
</svg>
