<svg width="20" height="20" viewBox="0 0 20 20" fill="none" xmlns="http://www.w3.org/2000/svg">
<path d="M12.5 3.33329H5.00004V16.6666H15V5.83329H12.5V3.33329ZM5.00004 1.66663H13.3334L16.6667 4.99996V16.6666C16.6667 17.1087 16.4911 17.5326 16.1786 17.8451C15.866 18.1577 15.4421 18.3333 15 18.3333H5.00004C4.55801 18.3333 4.13409 18.1577 3.82153 17.8451C3.50897 17.5326 3.33337 17.1087 3.33337 16.6666V3.33329C3.33337 2.89127 3.50897 2.46734 3.82153 2.15478C4.13409 1.84222 4.55801 1.66663 5.00004 1.66663ZM6.66671 9.16663H13.3334V10.8333H6.66671V9.16663ZM6.66671 12.5H13.3334V14.1666H6.66671V12.5Z" fill="#FFAA2A"/>
</svg>
