<svg width="16" height="16" viewBox="0 0 16 16" fill="none" xmlns="http://www.w3.org/2000/svg">
<path d="M3.41741 3.41821C3.4864 3.34904 3.56836 3.29417 3.65859 3.25673C3.74882 3.21928 3.84555 3.20001 3.94324 3.20001C4.04093 3.20001 4.13766 3.21928 4.22789 3.25673C4.31812 3.29417 4.40008 3.34904 4.46907 3.41821L8.39941 7.35004L12.3298 3.41821C12.3988 3.34915 12.4808 3.29438 12.571 3.25701C12.6612 3.21964 12.7579 3.2004 12.8556 3.2004C12.9532 3.2004 13.0499 3.21964 13.1402 3.25701C13.2304 3.29438 13.3124 3.34915 13.3814 3.41821C13.4505 3.48726 13.5052 3.56924 13.5426 3.65946C13.58 3.74968 13.5992 3.84638 13.5992 3.94403C13.5992 4.04169 13.58 4.13839 13.5426 4.22861C13.5052 4.31883 13.4505 4.40081 13.3814 4.46986L9.44958 8.40021L13.3814 12.3306C13.4505 12.3996 13.5052 12.4816 13.5426 12.5718C13.58 12.662 13.5992 12.7587 13.5992 12.8564C13.5992 12.954 13.58 13.0507 13.5426 13.141C13.5052 13.2312 13.4505 13.3132 13.3814 13.3822C13.3124 13.4513 13.2304 13.506 13.1402 13.5434C13.0499 13.5808 12.9532 13.6 12.8556 13.6C12.7579 13.6 12.6612 13.5808 12.571 13.5434C12.4808 13.506 12.3988 13.4513 12.3298 13.3822L8.39941 9.45038L4.46907 13.3822C4.40002 13.4513 4.31804 13.506 4.22782 13.5434C4.1376 13.5808 4.0409 13.6 3.94324 13.6C3.84559 13.6 3.74889 13.5808 3.65866 13.5434C3.56844 13.506 3.48647 13.4513 3.41741 13.3822C3.34836 13.3132 3.29358 13.2312 3.25621 13.141C3.21884 13.0507 3.19961 12.954 3.19961 12.8564C3.19961 12.7587 3.21884 12.662 3.25621 12.5718C3.29358 12.4816 3.34836 12.3996 3.41741 12.3306L7.34924 8.40021L3.41741 4.46986C3.34825 4.40087 3.29337 4.31892 3.25593 4.22869C3.21849 4.13846 3.19922 4.04173 3.19922 3.94403C3.19922 3.84634 3.21849 3.74961 3.25593 3.65938C3.29337 3.56915 3.34825 3.4872 3.41741 3.41821Z" fill="#757575"/>
</svg>
